<?xml version="1.0" encoding="UTF-8" standalone="no"?>
<!-- Created with Inkscape (http://www.inkscape.org/) -->

<svg
   width="114"
   height="32"
   viewBox="0 0 30.162499 8.4666666"
   version="1.1"
   id="svg5"
   xml:space="preserve"
   inkscape:version="1.2 (dc2aedaf03, 2022-05-15)"
   sodipodi:docname="videolid-logo.svg"
   xmlns:inkscape="http://www.inkscape.org/namespaces/inkscape"
   xmlns:sodipodi="http://sodipodi.sourceforge.net/DTD/sodipodi-0.dtd"
   xmlns="http://www.w3.org/2000/svg"
   xmlns:svg="http://www.w3.org/2000/svg"><sodipodi:namedview
     id="namedview7"
     pagecolor="#ffffff"
     bordercolor="#000000"
     borderopacity="0.25"
     inkscape:showpageshadow="2"
     inkscape:pageopacity="0.0"
     inkscape:pagecheckerboard="true"
     inkscape:deskcolor="#d1d1d1"
     inkscape:document-units="mm"
     showgrid="false"
     inkscape:zoom="3.6934332"
     inkscape:cx="110.33095"
     inkscape:cy="-4.4673882"
     inkscape:window-width="1920"
     inkscape:window-height="1111"
     inkscape:window-x="-9"
     inkscape:window-y="-9"
     inkscape:window-maximized="1"
     inkscape:current-layer="Layer_x0020_1" /><defs
     id="defs2"><style
       type="text/css"
       id="style198">
   <![CDATA[
    .fil0 {fill:#373435}
    .fil2 {fill:#91D8F7}
    .fil1 {fill:#201E1E}
   ]]>
  </style></defs><g
     inkscape:label="Layer 1"
     inkscape:groupmode="layer"
     id="layer1"><g
       id="Layer_x0020_1"
       inkscape:label="Layer 1"
       inkscape:groupmode="layer"
       transform="matrix(0.00128969,0,0,0.00128969,-0.59422202,-14.976088)"
       style="clip-rule:evenodd;fill-rule:evenodd;image-rendering:optimizeQuality;shape-rendering:geometricPrecision;text-rendering:geometricPrecision">
  <metadata
   id="CorelCorpID_0Corel-Layer" />
  <path
   class="fil0"
   d="M 7500.1179,16649.52 H 7312.9555 L 6155.1116,14247.68 h 324.5593 l 926.8744,1925.039 926.8577,-1925.039 h 330.4991 z m 1497.2467,0 V 14234.318 H 9300.382 V 16649.52 Z M 11052.38,14523.955 h -731.551 v 92.798 h -40.656 v 2032.767 h -257.901 v -2401.84 h 1030.108 c 378.027,0 682.542,111.396 913.511,334.944 230.97,223.548 346.824,513.942 346.824,872.666 0,360.945 -113.616,650.583 -340.883,868.189 -228.008,217.607 -534.004,326.041 -919.452,326.041 h -436.489 v -276.276 h 436.489 c 295.595,0 528.785,-83.189 698.142,-248.809 170.063,-166.361 254.716,-390.632 254.716,-673.605 0,-278.514 -86.15,-502.802 -259.192,-672.125 -172.302,-170.079 -404.012,-254.75 -693.666,-254.75 z m 1785.419,2125.565 v -1421.497 h 298.558 962.52 v 276.275 h -962.52 v 868.946 h 1688.886 v 276.276 z m 0,-2113.476 v -288.364 h 1889.395 v 276.275 h -1590.837 v 12.089 z m 3483.95,1895.128 c 269.594,0 493.142,-92.092 670.644,-276.275 176.761,-184.184 265.151,-418.131 265.151,-701.105 0,-283.697 -88.39,-518.386 -264.411,-702.569 -176.021,-184.201 -400.309,-276.276 -671.384,-276.276 -269.593,0 -493.141,92.834 -670.643,277.757 -176.761,184.923 -265.133,418.872 -265.133,701.088 0,282.974 88.372,516.921 265.133,701.105 177.502,184.183 401.05,276.275 670.643,276.275 z m -0.74,280.752 c -360.204,0 -657.281,-118.834 -891.229,-355.761 -233.949,-236.912 -351.285,-537.707 -351.285,-902.371 0,-365.387 117.336,-666.924 352.783,-903.851 234.672,-236.912 531.007,-355.728 889.731,-355.728 359.464,0 657.281,118.816 894.191,357.225 236.171,237.651 354.264,538.448 354.264,902.354 0,364.664 -118.093,665.459 -353.523,902.371 -235.429,236.927 -533.987,355.761 -894.932,355.761 z m 1773.539,-62.404 v -2401.84 h 280.425 v 2401.84 z m 616.16,-276.276 h 1250.951 v 276.276 h -1250.951 z m 1616.356,276.276 v -2415.202 h 303.018 v 2415.202 z m 2055.015,-2125.565 h -406.285 v -276.275 h 406.285 c 378.027,0 682.542,111.396 913.511,334.944 230.97,223.548 346.824,513.942 346.824,872.666 0,360.945 -113.616,650.583 -340.883,868.189 -228.008,217.607 -534.004,326.041 -919.452,326.041 h -1030.108 v -2401.84 h 288.088 v 1932.84 h 10.469 v 192.724 h 731.551 c 295.595,0 528.785,-83.189 698.126,-248.809 170.08,-166.361 254.732,-390.632 254.732,-673.605 0,-278.514 -86.15,-502.802 -259.192,-672.125 -172.302,-170.079 -404.012,-254.75 -693.666,-254.75 z"
   id="path203"
   style="stroke-width:1.72199" />
  <path
   class="fil1"
   d="m 4014.7544,17982.7 h -442.31 l -2739.93,-5682.33 h 767.07 l 2194.01,4555.45 224.78,-463.5 374.23,813.76 z m 1140.94,-3576.12 890.4,-1974.38 383.99,789.46 -898.76,2001.73 z"
   id="path205" />
  <polygon
   class="fil2"
   points="4634.03,12370.86 6367.3,12383.95 8991.21,17958.02 7270.4,17972.05 "
   id="polygon207"
   transform="translate(-2388.4456)"
   style="fill:#c87137" />
 </g></g></svg>
